<svg xmlns="http://www.w3.org/2000/svg" viewBox="0 0 400 225" width="400" height="225">
  <defs>
    <linearGradient id="bg5" x1="0%" y1="0%" x2="100%" y2="100%">
      <stop offset="0%" style="stop-color:#374151"/>
      <stop offset="100%" style="stop-color:#111827"/>
    </linearGradient>
    <linearGradient id="accent5" x1="0%" y1="0%" x2="100%" y2="0%">
      <stop offset="0%" style="stop-color:#9ca3af"/>
      <stop offset="100%" style="stop-color:#6b7280"/>
    </linearGradient>
  </defs>
  <rect width="400" height="225" fill="url(#bg5)"/>
  <g stroke="rgba(156,163,175,0.6)" stroke-width="2" fill="none" stroke-linecap="round" stroke-linejoin="round">
    <path d="M200 30 L150 70 L125 90 L100 110"/>
    <path d="M200 30 L250 70 L275 90 L300 110"/>
    <path d="M150 70 L125 90 L100 110 L75 130 L50 150"/>
    <path d="M150 70 L175 90 L200 110 L225 130 L250 150"/>
    <path d="M250 70 L225 90 L200 110 L175 130 L150 150"/>
    <path d="M250 70 L275 90 L300 110 L325 130 L350 150"/>
  </g>
  <g fill="url(#accent5)">
    <circle cx="200" cy="30" r="6"/>
    <circle cx="150" cy="70" r="5"/>
    <circle cx="250" cy="70" r="5"/>
    <circle cx="125" cy="90" r="4"/>
    <circle cx="175" cy="90" r="4"/>
    <circle cx="225" cy="90" r="4"/>
    <circle cx="275" cy="90" r="4"/>
    <circle cx="100" cy="110" r="3"/>
    <circle cx="200" cy="110" r="3"/>
    <circle cx="300" cy="110" r="3"/>
  </g>
  <rect x="20" y="20" width="70" height="3" fill="url(#accent5)" rx="1.5"/>
  <rect x="20" y="35" width="160" height="2.5" fill="rgba(255,255,255,0.25)" rx="1.25"/>
  <text x="200" y="180" font-family="system-ui, sans-serif" font-size="14" font-weight="700" fill="url(#accent5)" text-anchor="middle" letter-spacing="0.1em">RADIX TRIE</text>
  <text x="200" y="195" font-family="system-ui, sans-serif" font-size="9" fill="rgba(255,255,255,0.6)" text-anchor="middle">O(K) IPv4 Lookup</text>
  <rect x="15" y="185" width="60" height="18" fill="url(#accent5)" rx="3" opacity="0.9"/>
  <text x="45" y="197" font-family="system-ui, sans-serif" font-size="8" font-weight="600" fill="#111827" text-anchor="middle">C99</text>
  <rect x="90" y="185" width="80" height="18" fill="rgba(156,163,175,0.2)" rx="3"/>
  <text x="130" y="197" font-family="system-ui, sans-serif" font-size="8" font-weight="500" fill="#d1d5db" text-anchor="middle">Bit Manipulation</text>
  <rect x="185" y="185" width="70" height="18" fill="rgba(156,163,175,0.2)" rx="3"/>
  <text x="220" y="197" font-family="system-ui, sans-serif" font-size="8" font-weight="500" fill="#d1d5db" text-anchor="middle">Valgrind</text>
  <rect x="270" y="185" width="115" height="18" fill="rgba(156,163,175,0.2)" rx="3"/>
  <text x="327.5" y="197" font-family="system-ui, sans-serif" font-size="8" font-weight="500" fill="#d1d5db" text-anchor="middle">CSV Database</text>
</svg>