<svg xmlns="http://www.w3.org/2000/svg" viewBox="0 0 400 225" width="400" height="225">
  <defs>
    <linearGradient id="bg6" x1="0%" y1="0%" x2="100%" y2="100%">
      <stop offset="0%" style="stop-color:#166534"/>
      <stop offset="100%" style="stop-color:#14532d"/>
    </linearGradient>
    <linearGradient id="accent6" x1="0%" y1="0%" x2="100%" y2="0%">
      <stop offset="0%" style="stop-color:#22c55e"/>
      <stop offset="100%" style="stop-color:#16a34a"/>
    </linearGradient>
  </defs>
  <rect width="400" height="225" fill="url(#bg6)"/>
  <g transform="translate(200, 100)">
    <ellipse cx="0" cy="0" rx="55" ry="40" fill="none" stroke="url(#accent6)" stroke-width="3" opacity="0.8"/>
    <ellipse cx="0" cy="0" rx="50" ry="35" fill="none" stroke="rgba(34,197,94,0.4)" stroke-width="2" stroke-dasharray="6 4"/>
    <path d="M-15 0 Q0 -10 15 0 Q0 10 -15 0" fill="none" stroke="url(#accent6)" stroke-width="3" stroke-linecap="round" stroke-linejoin="round"/>
    <circle cx="-25" cy="0" r="4" fill="url(#accent6)"/>
    <circle cx="25" cy="0" r="4" fill="url(#accent6)"/>
    <circle cx="0" cy="-20" r="4" fill="url(#accent6)"/>
    <circle cx="0" cy="20" r="4" fill="url(#accent6)"/>
  </g>
  <rect x="20" y="20" width="70" height="3" fill="url(#accent6)" rx="1.5"/>
  <rect x="20" y="35" width="140" height="2.5" fill="rgba(255,255,255,0.25)" rx="1.25"/>
  <g font-family="system-ui, sans-serif" fill="white" text-anchor="middle">
    <text x="200" y="170" font-size="14" font-weight="700" fill="url(#accent6)">RSA CLI</text>
    <text x="200" y="185" font-size="9" fill="rgba(255,255,255,0.6)">Miller-Rabin • 2048-bit+</text>
  </g>
  <g transform="translate(30, 50)">
    <rect x="0" y="0" width="120" height="80" rx="6" fill="rgba(0,0,0,0.4)" stroke="rgba(34,197,94,0.3)" stroke-width="1"/>
    <text x="60" y="18" font-size="8" font-weight="600" fill="#86efac" text-anchor="middle">KeyGen</text>
    <text x="60" y="32" font-size="7" fill="rgba(255,255,255,0.5)" text-anchor="middle">Prime Gen</text>
    <text x="60" y="44" font-size="7" fill="rgba(255,255,255,0.5)" text-anchor="middle">Parallel.For</text>
    <text x="60" y="56" font-size="7" fill="rgba(255,255,255,0.5)" text-anchor="middle">File Store</text>
    <text x="60" y="70" font-size="7" fill="rgba(255,255,255,0.5)" text-anchor="middle">CLI Commands</text>
  </g>
  <g transform="translate(250, 50)">
    <rect x="0" y="0" width="120" height="80" rx="6" fill="rgba(0,0,0,0.4)" stroke="rgba(34,197,94,0.3)" stroke-width="1"/>
    <text x="60" y="18" font-size="8" font-weight="600" fill="#86efac" text-anchor="middle">HttpHandler</text>
    <text x="60" y="32" font-size="7" fill="rgba(255,255,255,0.5)" text-anchor="middle">Async GET/PUT</text>
    <text x="60" y="44" font-size="7" fill="rgba(255,255,255,0.5)" text-anchor="middle">JSON Serialize</text>
    <text x="60" y="56" font-size="7" fill="rgba(255,255,255,0.5)" text-anchor="middle">Key Exchange</text>
    <text x="60" y="70" font-size="7" fill="rgba(255,255,255,0.5)" text-anchor="middle">Crypto Transport</text>
  </g>
  <rect x="15" y="185" width="60" height="18" fill="url(#accent6)" rx="3" opacity="0.9"/>
  <text x="45" y="197" font-family="system-ui, sans-serif" font-size="8" font-weight="600" fill="#14532d" text-anchor="middle">C#</text>
  <rect x="90" y="185" width="85" height="18" fill="rgba(34,197,94,0.2)" rx="3"/>
  <text x="132.5" y="197" font-family="system-ui, sans-serif" font-size="8" font-weight="500" fill="#86efac" text-anchor="middle">Miller-Rabin</text>
  <rect x="190" y="185" width="95" height="18" fill="rgba(34,197,94,0.2)" rx="3"/>
  <text x="237.5" y="197" font-family="system-ui, sans-serif" font-size="8" font-weight="500" fill="#86efac" text-anchor="middle">Parallel.For</text>
  <rect x="300" y="185" width="85" height="18" fill="rgba(34,197,94,0.2)" rx="3"/>
  <text x="342.5" y="197" font-family="system-ui, sans-serif" font-size="8" font-weight="500" fill="#86efac" text-anchor="middle">Async/Await</text>
</svg>